<svg width="71" height="94" viewBox="0 0 71 94" fill="none" xmlns="http://www.w3.org/2000/svg">
<path d="M35.7873 93.7687H34.3235C33.3504 93.2222 32.4558 92.5464 31.6643 91.7596C11.8793 73.8456 -13.5858 37.2537 8.60422 12.1317C31.6542 -13.9683 73.6044 5.2048 69.9934 39.6588C68.0934 57.7748 51.5444 80.0117 38.2634 91.9427C37.5266 92.6632 36.6933 93.2776 35.7873 93.7687ZM34.1023 15.6686C30.5792 15.8576 27.1729 16.9949 24.2429 18.9603C21.3129 20.9257 18.9682 23.6463 17.4568 26.8343C15.9453 30.0224 15.323 33.5595 15.656 37.0719C15.989 40.5843 17.2647 43.9415 19.3484 46.7887C28.6394 59.4397 48.5276 56.3306 53.5486 41.5216C54.5616 38.5027 54.8251 35.2827 54.3161 32.1393C53.8071 28.9958 52.5407 26.0233 50.6267 23.4784C48.7127 20.9334 46.2081 18.8925 43.3293 17.5314C40.4505 16.1702 37.2837 15.5299 34.1023 15.6656V15.6686Z" fill="#0B1D5B"/>
</svg>
