<svg width="83" height="59" viewBox="0 0 83 59" fill="none" xmlns="http://www.w3.org/2000/svg">
<path d="M82.9473 52.0062C82.6603 52.6062 82.635 53.3151 82.334 53.9061C82.256 54.0591 82.3766 54.166 82.0596 54.106L57.2021 29.106L82.0596 4.21906C82.3766 4.16106 82.259 4.26902 82.334 4.41902C82.593 5.0334 82.7984 5.66927 82.9473 6.31916V52.0062Z" fill="#0B1D5B"/>
<path d="M6.4502 0.0510254L76.0684 0C76.4824 0.049 78.6894 0.36909 78.5684 0.89209L43.2598 36.2151C42.7499 36.6135 42.1207 36.8298 41.4736 36.8298C40.8265 36.8298 40.1984 36.6135 39.6885 36.2151L4.45312 0.980957L4.37695 0.737061C4.45295 0.427061 6.0812 0.135025 6.4502 0.0510254Z" fill="#0B1D5B"/>
<path d="M29.1067 32.7351C32.2547 34.9451 35.9179 40.9421 39.8489 41.5601C46.6549 42.6321 49.2329 36.1951 53.8489 32.7351L78.5745 57.5872C78.4955 57.9212 76.3364 58.3442 75.9094 58.3262H7.04614C6.18625 58.2753 5.34109 58.0798 4.54614 57.748C4.38214 57.622 4.28227 57.517 4.45727 57.343L29.1067 32.7351Z" fill="#0B1D5B"/>
<path d="M0.655273 54.1111L0 51.4451V7.04517C0.0763106 6.06587 0.326484 5.10785 0.738281 4.21606L25.7529 29.2231L0.655273 54.1111Z" fill="#0B1D5B"/>
</svg>
