<svg width="86" height="84" viewBox="0 0 86 84" fill="none" xmlns="http://www.w3.org/2000/svg">
<path d="M0 80.0471V78.3801L3.64062 67.813C1.08201 62.3255 0.478547 56.1277 1.93066 50.2498C3.38278 44.3718 6.80245 39.1677 11.6221 35.5029C11.7069 29.7882 13.1503 24.1758 15.832 19.1287C18.5137 14.0815 22.3575 9.74435 27.0459 6.47561C31.7342 3.20686 37.1328 1.10027 42.7959 0.329365C48.459 -0.441541 54.2237 0.145409 59.6152 2.04201C79.9522 9.21001 89.1768 32.5322 80.0479 51.9841C81.2768 56.7332 83.7471 61.565 84.9111 66.272C86.0911 71.031 82.4309 74.4662 77.7539 73.2652C73.0539 72.0582 68.2314 69.6279 63.4824 68.3889C58.8492 70.5593 53.8218 71.7626 48.708 71.9251C45.0491 76.8504 39.8056 80.3653 33.8594 81.8784C27.9132 83.3915 21.6277 82.8104 16.0596 80.2329C12.8266 81.1179 9.50316 82.7851 6.28516 83.5821C3.12216 84.3681 1.022 83.0901 0 80.0471ZM80.0225 68.3801C80.0811 68.0497 80.0606 67.7097 79.9619 67.3889L74.7129 52.0061C74.4769 50.7731 75.3173 49.9171 75.7393 48.8721C81.1993 35.3351 78.312 20.929 66.708 11.752C49.556 -1.81203 23.7157 6.46898 17.8857 27.46C16.3139 33.0305 16.3336 38.93 17.9424 44.49C19.5512 50.05 22.6847 55.0482 26.9883 58.9187C31.2919 62.7892 36.5932 65.3772 42.292 66.3894C47.9908 67.4017 53.8592 66.7977 59.2324 64.646C60.4484 64.167 62.2325 62.9729 63.4775 63.0659L79.4111 68.448C79.6162 68.5018 79.8342 68.4777 80.0225 68.3801ZM42.0977 71.5591C34.6356 70.3706 27.7331 66.8741 22.3604 61.5611C16.9876 56.248 13.4144 49.3854 12.1426 41.937C9.60684 44.5485 7.79353 47.7748 6.88184 51.2988C5.97015 54.8229 5.99125 58.5235 6.94238 62.0371C7.46238 64.0001 8.53528 65.6992 8.98828 67.6502L5.32617 78.5501L16.2266 74.888C18.1786 75.341 19.8758 76.4151 21.8408 76.9331C24.986 77.764 28.2783 77.8681 31.4697 77.2376C34.6611 76.6071 37.6678 75.2585 40.2607 73.294C40.9527 72.806 41.5723 72.223 42.1016 71.562L42.0977 71.5591Z" fill="#9D0399"/>
<path d="M32.0728 32.9941L62.8189 32.9541C66.2299 33.5211 65.9639 37.9541 62.4829 38.1101H32.7007C29.4217 37.9061 28.9218 33.8941 32.0728 32.9941Z" fill="#9D0399"/>
<path d="M32.5804 22.5171L62.3177 22.4731C65.7647 22.5321 66.4085 26.8661 62.9895 27.6331H32.3665C31.6881 27.6047 31.0488 27.3079 30.5892 26.8081C30.1295 26.3083 29.8869 25.6464 29.9153 24.968C29.9437 24.2896 30.2407 23.6503 30.7405 23.1907C31.2403 22.731 31.9019 22.4887 32.5804 22.5171Z" fill="#9D0399"/>
<path d="M30.6762 44.1598C31.1145 43.7943 31.637 43.5448 32.1967 43.434C38.2877 43.92 45.3653 42.798 51.3393 43.434C51.9349 43.4948 52.4894 43.7647 52.9047 44.1959C53.3201 44.6271 53.5694 45.1917 53.6079 45.7892C53.6464 46.3867 53.4713 46.9784 53.1147 47.4594C52.7581 47.9403 52.2425 48.2792 51.6596 48.4159L32.2006 48.4269C31.7344 48.369 31.2939 48.1828 30.9272 47.8891C30.5606 47.5953 30.2826 47.2055 30.1245 46.7631C29.9664 46.3207 29.9343 45.8431 30.0317 45.3834C30.1291 44.9238 30.3523 44.5001 30.6762 44.1598Z" fill="#9D0399"/>
</svg>
