<svg width="50" height="50" viewBox="0 0 50 50" fill="none" xmlns="http://www.w3.org/2000/svg">
<path d="M13.7096 0C14.5797 0.152449 15.3785 0.579043 15.9889 1.21753C16.5993 1.85602 16.9895 2.67302 17.1027 3.54907C17.1864 5.9529 17.4557 8.34659 17.9079 10.709C18.4079 12.809 19.3948 14.2539 18.0578 16.3569L13.5329 22.325C14.052 23.5464 14.6953 24.7113 15.4528 25.801C17.9752 29.6082 21.3275 32.7942 25.2585 35.1191C25.8957 35.5405 26.5643 35.9121 27.2585 36.231C27.4695 36.26 27.6045 36.0959 27.7585 35.9919C29.6265 34.7349 31.4986 32.8651 33.3586 31.6921C35.6316 30.2611 38.8689 31.973 41.4059 32.343C43.0159 32.578 44.5805 32.4979 46.1325 32.6599C47.0296 32.7815 47.8622 33.1946 48.5016 33.8354C49.1411 34.4763 49.552 35.3097 49.6715 36.207C49.4845 39.398 49.9648 42.9559 49.6828 46.1069C49.5794 46.9968 49.1945 47.8305 48.5841 48.4863C47.9738 49.1422 47.1699 49.5859 46.2897 49.7529H43.6715L39.5636 49.353C29.5447 47.9535 20.2682 43.2851 13.1745 36.0728C6.08077 28.8604 1.56683 19.5078 0.333653 9.46704L0.0338482 6.12695C0.111848 5.27095 -0.0721518 4.23801 0.0338482 3.40601C0.201098 2.56769 0.612537 1.79762 1.21647 1.19263C1.82039 0.587631 2.58987 0.174834 3.42789 0.00610352L13.7096 0Z" fill="#0B1D5B"/>
</svg>
